<?xml version="1.0" standalone="no"?>
<!DOCTYPE svg PUBLIC "-//W3C//DTD SVG 20010904//EN"
 "http://www.w3.org/TR/2001/REC-SVG-20010904/DTD/svg10.dtd">
<svg version="1.0" xmlns="http://www.w3.org/2000/svg"
 width="700.000000pt" height="700.000000pt" viewBox="0 0 700.000000 700.000000"
 preserveAspectRatio="xMidYMid meet">
<metadata>
Created by potrace 1.11, written by Peter Selinger 2001-2013
</metadata>
<g transform="translate(0.000000,700.000000) scale(0.100000,-0.100000)"
fill="#000000" stroke="none">
<path d="M3427 6994 c-1 -1 -60 -4 -132 -8 -161 -7 -191 -10 -400 -42 -176
-27 -541 -128 -683 -190 -17 -8 -47 -21 -66 -29 -19 -8 -37 -15 -41 -15 -13 0
-303 -149 -380 -195 -145 -87 -350 -231 -431 -301 -12 -11 -48 -41 -80 -69
-61 -51 -279 -267 -350 -345 -382 -426 -683 -1029 -793 -1590 -6 -30 -13 -66
-16 -80 -13 -65 -36 -238 -42 -312 -10 -107 -10 -523 0 -613 4 -38 9 -99 13
-135 10 -116 65 -385 109 -540 2 -8 9 -31 14 -50 45 -171 180 -484 297 -693
45 -79 202 -321 236 -362 9 -11 54 -67 100 -125 101 -128 339 -369 469 -476
147 -122 156 -129 279 -213 412 -282 889 -475 1374 -556 21 -4 48 -9 60 -11
11 -2 41 -7 66 -10 24 -3 56 -8 70 -11 53 -9 580 -12 675 -3 118 11 292 31
320 36 11 2 34 7 50 10 17 3 50 10 75 15 25 6 56 13 70 15 55 10 281 76 370
108 138 50 200 76 350 149 681 328 1271 908 1609 1584 66 133 141 305 141 325
0 8 4 18 9 24 9 9 96 281 105 326 2 12 9 43 16 68 7 25 14 54 16 65 2 11 6 31
9 45 5 24 14 72 21 115 2 11 6 31 8 45 3 14 8 48 11 75 4 28 8 61 10 75 26
184 26 636 0 817 -9 59 -44 275 -50 304 -29 150 -116 429 -192 614 -47 115
-172 363 -225 450 -243 390 -499 681 -838 954 -233 187 -526 363 -785 473 -22
9 -62 26 -89 38 -210 89 -611 191 -843 215 -34 3 -72 8 -85 10 -39 8 -424 25
-431 19z"/>
</g>
</svg>
